<svg width="376" height="177" viewBox="0 0 376 177" fill="none" xmlns="http://www.w3.org/2000/svg">
<path d="M167.999 2.21997C168.629 2.21997 169.199 2.60998 169.419 3.19998L179.149 28.81C179.329 29.28 179.269 29.8 178.979 30.21C178.689 30.63 178.239 30.87 177.729 30.87H159.999C158.139 30.87 156.439 32.04 155.769 33.78L150.959 46.43L150.859 46.7L134.269 90.36C134.049 90.95 133.479 91.34 132.849 91.34H104.019C103.509 91.34 103.059 91.1 102.769 90.68C102.479 90.26 102.419 89.75 102.599 89.28L123.649 33.86H123.659L124.029 32.89L135.309 3.18997C135.529 2.59997 136.099 2.20996 136.729 2.20996H167.999M167.999 0.719971H136.729C135.479 0.719971 134.349 1.49998 133.909 2.66998L122.629 32.37H122.619L101.199 88.76C100.449 90.74 101.909 92.85 104.019 92.85H132.849C134.099 92.85 135.229 92.07 135.669 90.9L152.359 46.98L157.169 34.32C157.619 33.15 158.739 32.37 159.989 32.37H177.719C179.829 32.37 181.289 30.25 180.539 28.28L170.809 2.66998C170.359 1.49998 169.239 0.719971 167.989 0.719971H167.999Z" fill="white"/>
<path d="M247.879 32.37H230.289C229.039 32.37 227.909 33.15 227.469 34.32L222.589 47.16L205.969 90.9C205.519 92.07 204.399 92.85 203.149 92.85H171.869C170.619 92.85 169.489 92.07 169.049 90.9L159.319 65.28C158.569 63.3 160.029 61.19 162.139 61.19H179.879C181.129 61.19 182.259 60.42 182.699 59.24L187.509 46.59L192.899 32.37L204.179 2.66998C204.629 1.49998 205.749 0.719971 206.999 0.719971H238.139C239.389 0.719971 240.519 1.49998 240.959 2.66998L250.689 28.28C251.439 30.26 249.979 32.37 247.869 32.37H247.879Z" fill="#2EBCB4"/>
<path d="M261.129 62.6899C261.759 62.6899 262.329 63.08 262.549 63.67L272.279 89.2899C272.459 89.7599 272.399 90.2799 272.109 90.6899C271.819 91.0999 271.369 91.3499 270.859 91.3499H242.019C241.389 91.3499 240.819 90.9599 240.599 90.3699L230.869 64.7499C230.689 64.2799 230.749 63.7599 231.039 63.3499C231.329 62.9299 231.779 62.6899 232.289 62.6899H261.119M261.129 61.1899H232.299C230.189 61.1899 228.729 63.3099 229.479 65.2799L239.209 90.8999C239.659 92.0699 240.779 92.8499 242.029 92.8499H270.869C272.979 92.8499 274.439 90.7299 273.689 88.7599L263.959 63.14C263.509 61.97 262.389 61.1899 261.139 61.1899H261.129Z" fill="white"/>
<path d="M0.0200043 175.58V127.69H4.57L23.3 158.47L42.03 127.69H46.58V175.58H40.09V141.88L25.6 165.78H20.98L6.49 141.88V175.58H0H0.0200043Z" fill="white"/>
<path d="M86.62 150.47C85.1 147.89 83.04 145.86 80.44 144.36C77.84 142.87 74.93 142.12 71.71 142.12C68.49 142.12 65.66 142.88 63.09 144.4C60.51 145.92 58.47 147.95 56.95 150.51C55.43 153.06 54.67 155.93 54.67 159.1C54.67 162.27 55.43 165.23 56.95 167.83C58.47 170.43 60.51 172.49 63.09 174.01C65.67 175.53 68.54 176.29 71.71 176.29C74.88 176.29 77.84 175.53 80.44 174.01C83.04 172.49 85.1 170.43 86.62 167.83C88.14 165.23 88.9 162.32 88.9 159.1C88.9 155.88 88.14 153.05 86.62 150.48V150.47ZM81.1 164.85C80.18 166.53 78.91 167.85 77.31 168.82C75.7 169.79 73.84 170.27 71.72 170.27C69.6 170.27 67.88 169.79 66.27 168.82C64.66 167.85 63.39 166.53 62.48 164.85C61.56 163.17 61.1 161.25 61.1 159.09C61.1 156.93 61.56 155.09 62.48 153.43C63.4 151.77 64.66 150.47 66.27 149.53C67.88 148.59 69.7 148.12 71.72 148.12C73.74 148.12 75.69 148.59 77.27 149.53C78.86 150.47 80.12 151.77 81.06 153.43C82 155.09 82.47 156.97 82.47 159.09C82.47 161.21 82.01 163.17 81.09 164.85H81.1Z" fill="white"/>
<path d="M164.21 149.92C162.9 147.48 161.07 145.57 158.72 144.19C156.38 142.81 153.71 142.12 150.72 142.12C147.55 142.12 144.68 142.87 142.13 144.36C139.58 145.86 137.55 147.89 136.06 150.47C134.56 153.05 133.81 155.94 133.81 159.16C133.81 162.38 134.57 165.35 136.09 167.93C137.61 170.5 139.67 172.54 142.27 174.03C144.87 175.53 147.82 176.28 151.13 176.28C153.71 176.28 156.12 175.79 158.38 174.83C160.63 173.86 162.56 172.46 164.17 170.62L160.17 166.55C159.07 167.84 157.75 168.8 156.21 169.45C154.66 170.09 152.97 170.41 151.13 170.41C148.93 170.41 146.97 169.94 145.27 169C143.57 168.05 142.25 166.72 141.34 164.99C140.77 163.94 140.38 162.78 140.17 161.51H165.83C165.97 160.87 166.06 160.28 166.11 159.75C166.15 159.22 166.18 158.73 166.18 158.27C166.18 155.14 165.52 152.36 164.21 149.92ZM140.18 156.34C140.39 155.15 140.75 154.07 141.27 153.09C142.14 151.44 143.38 150.15 144.99 149.23C146.6 148.31 148.46 147.85 150.58 147.85C152.7 147.85 154.33 148.27 155.76 149.12C157.18 149.98 158.29 151.17 159.07 152.71C159.85 154.25 160.12 156.34 160.12 156.34H140.18Z" fill="white"/>
<path d="M172.93 175.58V126.31H179.14V175.58H172.93Z" fill="white"/>
<path d="M202.6 176.27C198.87 176.27 195.68 175.58 193.01 174.2C190.34 172.82 187.97 170.82 185.9 168.2L190.32 163.78C191.84 165.9 193.59 167.49 195.56 168.57C197.54 169.65 199.98 170.19 202.87 170.19C205.76 170.19 208.01 169.57 209.74 168.33C211.46 167.09 212.33 165.39 212.33 163.22C212.33 161.43 211.9 159.98 211.05 158.87C210.2 157.77 209.08 156.86 207.7 156.14C206.32 155.43 204.8 154.8 203.15 154.24C201.49 153.69 199.84 153.08 198.18 152.41C196.52 151.74 194.99 150.9 193.59 149.89C192.19 148.88 191.07 147.58 190.24 145.99C189.41 144.4 189 142.37 189 139.88C189 137.17 189.66 134.85 190.97 132.95C192.28 131.04 194.08 129.57 196.35 128.53C198.63 127.49 201.19 126.98 204.04 126.98C207.17 126.98 209.97 127.59 212.46 128.81C214.94 130.03 216.97 131.63 218.53 133.6L214.11 138.02C212.68 136.36 211.15 135.12 209.52 134.29C207.89 133.46 206.01 133.05 203.9 133.05C201.32 133.05 199.28 133.61 197.76 134.74C196.24 135.87 195.48 137.44 195.48 139.47C195.48 141.08 195.9 142.38 196.76 143.37C197.61 144.36 198.73 145.2 200.11 145.89C201.49 146.58 203.02 147.21 204.7 147.79C206.38 148.37 208.05 149 209.7 149.69C211.36 150.38 212.87 151.25 214.25 152.31C215.63 153.37 216.74 154.74 217.6 156.42C218.45 158.1 218.88 160.2 218.88 162.73C218.88 166.96 217.42 170.27 214.5 172.67C211.58 175.06 207.61 176.26 202.6 176.26V176.27Z" fill="#2EBCB4"/>
<path d="M245.86 142.81H237.79V129.08H231.58V142.81H223.51V148.47H231.58V175.58H237.79V148.47H245.86V142.81Z" fill="#2EBCB4"/>
<path d="M265.18 176.13C262.47 176.13 260.04 175.54 257.9 174.37C255.76 173.2 254.09 171.53 252.9 169.37C251.7 167.21 251.11 164.7 251.11 161.85V142.81H257.32V161.58C257.32 163.37 257.63 164.93 258.25 166.24C258.87 167.55 259.78 168.55 260.98 169.24C262.18 169.93 263.58 170.27 265.19 170.27C267.63 170.27 269.54 169.5 270.92 167.96C272.3 166.42 272.99 164.29 272.99 161.58V142.81H279.2V161.85C279.2 164.7 278.6 167.21 277.41 169.37C276.21 171.53 274.56 173.2 272.44 174.37C270.32 175.54 267.91 176.13 265.19 176.13H265.18Z" fill="#2EBCB4"/>
<path d="M312.38 126.32V147.36C311.22 145.83 309.79 144.59 308.03 143.67C306.05 142.63 303.82 142.12 301.34 142.12C298.35 142.12 295.66 142.88 293.27 144.4C290.88 145.92 288.98 147.97 287.58 150.54C286.18 153.12 285.48 156.01 285.48 159.23C285.48 162.45 286.18 165.35 287.58 167.92C288.98 170.5 290.88 172.53 293.27 174.03C295.66 175.53 298.35 176.27 301.34 176.27C303.87 176.27 306.12 175.75 308.1 174.72C309.83 173.81 311.24 172.58 312.38 171.06V175.59H318.66V126.32H312.38ZM311.48 164.99C310.61 166.67 309.39 167.99 307.82 168.96C306.26 169.93 304.44 170.41 302.37 170.41C300.3 170.41 298.54 169.94 296.95 168.99C295.36 168.05 294.12 166.73 293.22 165.02C292.32 163.32 291.88 161.36 291.88 159.15C291.88 156.94 292.33 155 293.22 153.32C294.12 151.64 295.35 150.33 296.91 149.39C298.47 148.45 300.29 147.98 302.36 147.98C304.43 147.98 306.25 148.46 307.81 149.43C309.37 150.4 310.59 151.72 311.47 153.4C312.34 155.08 312.78 157.02 312.78 159.23C312.78 161.44 312.34 163.31 311.47 164.99H311.48Z" fill="#2EBCB4"/>
<path d="M330.87 136.25C332.02 136.25 332.96 135.87 333.7 135.11C334.44 134.35 334.8 133.4 334.8 132.25C334.8 131.1 334.43 130.21 333.7 129.46C332.96 128.7 332.02 128.32 330.87 128.32C329.72 128.32 328.78 128.7 328.04 129.46C327.3 130.22 326.94 131.15 326.94 132.25C326.94 133.35 327.31 134.35 328.04 135.11C328.78 135.87 329.72 136.25 330.87 136.25Z" fill="#2EBCB4"/>
<path d="M333.98 142.81H327.7V175.59H333.98V142.81Z" fill="#2EBCB4"/>
<path d="M372.96 150.47C371.44 147.89 369.38 145.86 366.78 144.36C364.18 142.87 361.27 142.12 358.05 142.12C354.83 142.12 352 142.88 349.43 144.4C346.85 145.92 344.81 147.95 343.29 150.51C341.77 153.06 341.01 155.93 341.01 159.1C341.01 162.27 341.77 165.23 343.29 167.83C344.81 170.43 346.85 172.49 349.43 174.01C352.01 175.53 354.88 176.29 358.05 176.29C361.22 176.29 364.18 175.53 366.78 174.01C369.38 172.49 371.44 170.43 372.96 167.83C374.48 165.23 375.24 162.32 375.24 159.1C375.24 155.88 374.48 153.05 372.96 150.48V150.47ZM367.44 164.85C366.52 166.53 365.25 167.85 363.65 168.82C362.04 169.79 360.18 170.27 358.06 170.27C355.94 170.27 354.22 169.79 352.61 168.82C351 167.85 349.73 166.53 348.82 164.85C347.9 163.17 347.44 161.25 347.44 159.09C347.44 156.93 347.9 155.09 348.82 153.43C349.74 151.77 351 150.47 352.61 149.53C354.22 148.59 356.04 148.12 358.06 148.12C360.08 148.12 362.03 148.59 363.61 149.53C365.2 150.47 366.46 151.77 367.4 153.43C368.34 155.09 368.81 156.97 368.81 159.09C368.81 161.21 368.35 163.17 367.43 164.85H367.44Z" fill="#2EBCB4"/>
<path d="M120.63 126.32V147.36C119.47 145.83 118.04 144.59 116.28 143.67C114.3 142.63 112.07 142.12 109.59 142.12C106.6 142.12 103.91 142.88 101.52 144.4C99.13 145.92 97.23 147.97 95.83 150.54C94.43 153.12 93.73 156.01 93.73 159.23C93.73 162.45 94.43 165.35 95.83 167.92C97.23 170.5 99.13 172.53 101.52 174.03C103.91 175.53 106.6 176.27 109.59 176.27C112.12 176.27 114.37 175.75 116.35 174.72C118.08 173.81 119.49 172.58 120.63 171.06V175.59H126.91V126.32H120.63ZM119.74 164.99C118.87 166.67 117.65 167.99 116.08 168.96C114.52 169.93 112.7 170.41 110.63 170.41C108.56 170.41 106.8 169.94 105.21 168.99C103.62 168.05 102.38 166.73 101.48 165.02C100.58 163.32 100.13 161.36 100.13 159.15C100.13 156.94 100.58 155 101.48 153.32C102.38 151.64 103.61 150.33 105.17 149.39C106.73 148.45 108.55 147.98 110.62 147.98C112.69 147.98 114.51 148.46 116.07 149.43C117.63 150.4 118.85 151.72 119.73 153.4C120.6 155.08 121.04 157.02 121.04 159.23C121.04 161.44 120.6 163.31 119.73 164.99H119.74Z" fill="white"/>
</svg>
